<?xml version="1.0" encoding="UTF-8" standalone="no" ?>
<!DOCTYPE svg PUBLIC "-//W3C//DTD SVG 1.1//EN" "http://www.w3.org/Graphics/SVG/1.1/DTD/svg11.dtd">
<svg xmlns="http://www.w3.org/2000/svg" xmlns:xlink="http://www.w3.org/1999/xlink" version="1.1" width="1280" height="1024" viewBox="0 0 1280 1024" xml:space="preserve">
<desc>Created with Fabric.js 5.3.0</desc>
<defs>
</defs>
<g transform="matrix(1 0 0 1 640 512)" id="background-logo"  >
<rect style="stroke: none; stroke-width: 0; stroke-dasharray: none; stroke-linecap: butt; stroke-dashoffset: 0; stroke-linejoin: miter; stroke-miterlimit: 4; fill: rgb(255,255,255); fill-opacity: 0; fill-rule: nonzero; opacity: 1;"  paint-order="stroke"  x="-640" y="-512" rx="0" ry="0" width="1280" height="1024" />
</g>
<g transform="matrix(1.9211538461538462 0 0 1.9211538461538462 642.5460091346155 748.832979764023)" id="text-logo"  >
<g style=""  paint-order="stroke"   >
		<g transform="matrix(1 0 0 1 -5.684342e-14 0)" id="text-logo-path-0"  >
<path style="stroke: none; stroke-width: 0; stroke-dasharray: none; stroke-linecap: butt; stroke-dashoffset: 0; stroke-linejoin: miter; stroke-miterlimit: 4; fill: rgb(237,82,18); fill-rule: nonzero; opacity: 1;"  paint-order="stroke"  transform=" translate(-309.195, 19.465)" d="M 33.52 -38.93 L 33.46 -38.99 L 23.26 -21.95 L 13.05 -38.99 L 3.53 -38.99 L 3.53 0 L 13.05 0 L 13.05 -21.6 L 22.12 -6.38 L 24.45 -6.38 L 33.52 -21.6 L 33.52 0 L 42.98 0 L 42.98 -38.99 L 33.52 -38.99 Z M 59.56 -8.95 L 59.56 -15.45 L 73.13 -15.45 L 73.13 -24.4 L 59.56 -24.4 L 59.56 -29.98 L 74.5 -29.98 L 74.5 -38.99 L 50.05 -38.99 L 50.05 0 L 74.78 0 L 74.78 -8.95 Z M 92.4 0.8 C 99.64 0.8 106.65 -3.25 106.65 -11.06 C 106.65 -18.75 100.61 -21.95 94.05 -23.94 C 92.28 -24.51 90.97 -25.02 90.12 -25.42 C 88.92 -25.99 88.06 -26.62 88.06 -28.04 C 88.06 -29.7 90.17 -30.32 91.48 -30.32 C 94.56 -30.32 96.1 -28.96 97.41 -26.28 L 105.51 -31.01 C 102.71 -36.77 97.87 -39.73 91.48 -39.73 C 84.53 -39.73 78.6 -35.23 78.6 -28.04 C 78.6 -20.69 83.85 -17.78 90.17 -15.9 C 92.17 -15.33 93.59 -14.82 94.56 -14.42 C 95.87 -13.91 97.19 -13.22 97.19 -11.63 C 97.19 -9.52 94.34 -8.49 92.63 -8.49 C 88.92 -8.49 86.36 -9.92 84.93 -13.45 L 76.95 -8.78 C 79.52 -2.22 85.56 0.8 92.4 0.8 Z M 123.75 0.8 C 130.99 0.8 138 -3.25 138 -11.06 C 138 -18.75 131.96 -21.95 125.4 -23.94 C 123.63 -24.51 122.32 -25.02 121.47 -25.42 C 120.27 -25.99 119.42 -26.62 119.42 -28.04 C 119.42 -29.7 121.52 -30.32 122.84 -30.32 C 125.91 -30.32 127.45 -28.96 128.76 -26.28 L 136.86 -31.01 C 134.06 -36.77 129.22 -39.73 122.84 -39.73 C 115.88 -39.73 109.95 -35.23 109.95 -28.04 C 109.95 -20.69 115.2 -17.78 121.52 -15.9 C 123.52 -15.33 124.94 -14.82 125.91 -14.42 C 127.22 -13.91 128.54 -13.22 128.54 -11.63 C 128.54 -9.52 125.69 -8.49 123.98 -8.49 C 120.27 -8.49 117.71 -9.92 116.28 -13.45 L 108.3 -8.78 C 110.87 -2.22 116.91 0.8 123.75 0.8 Z M 166.33 0 L 176.47 0 L 162.17 -38.99 L 152.02 -38.99 L 137.77 0 L 147.92 0 L 150.42 -6.78 L 163.82 -6.78 Z M 153.67 -15.79 L 157.15 -25.19 L 160.51 -15.79 Z M 214.89 -17.9 L 214.89 -21.77 L 193.34 -21.77 L 193.34 -12.77 L 203.38 -12.77 C 201.38 -10.2 198.36 -8.72 195.11 -8.72 C 189.3 -8.72 184.45 -13.57 184.45 -19.32 C 184.45 -25.14 189.35 -29.93 195.11 -29.93 C 198.65 -29.93 201.44 -28.39 203.6 -25.59 L 211.01 -31.46 C 207.14 -36.48 201.5 -39.39 195.11 -39.39 C 183.94 -39.39 174.99 -30.38 174.99 -19.32 C 174.99 -8.21 184.11 0.8 195.11 0.8 C 205.49 0.8 214.89 -7.3 214.89 -17.9 Z M 228.57 -8.95 L 228.57 -15.45 L 242.14 -15.45 L 242.14 -24.4 L 228.57 -24.4 L 228.57 -29.98 L 243.5 -29.98 L 243.5 -38.99 L 219.05 -38.99 L 219.05 0 L 243.79 0 L 243.79 -8.95 Z M 263.34 -38.99 L 263.34 0 L 272.86 0 L 272.86 -38.99 Z M 302.1 -38.99 L 302.1 -19.15 L 289.45 -38.99 L 279.93 -38.99 L 279.93 0 L 289.45 0 L 289.45 -22.29 L 303.7 0 L 311.62 0 L 311.62 -38.99 Z M 315.78 -19.32 C 315.78 -8.21 324.9 0.8 335.9 0.8 C 343.25 0.8 350.21 -3.42 353.63 -9.92 L 345.25 -14.48 C 343.54 -11 339.78 -8.72 335.9 -8.72 C 330.09 -8.72 325.24 -13.57 325.24 -19.32 C 325.24 -25.14 330.14 -29.93 335.9 -29.93 C 339.78 -29.93 343.31 -27.87 345.19 -24.45 L 353.51 -28.9 C 350.04 -35.4 343.25 -39.39 335.9 -39.39 C 324.84 -39.39 315.78 -30.5 315.78 -19.32 Z M 358.64 -38.99 L 358.64 0 L 368.16 0 L 368.16 -38.99 Z M 397.4 -38.99 L 397.4 -19.15 L 384.75 -38.99 L 375.23 -38.99 L 375.23 0 L 384.75 0 L 384.75 -22.29 L 399 0 L 406.92 0 L 406.92 -38.99 Z M 423.45 -8.95 L 423.45 -15.45 L 437.02 -15.45 L 437.02 -24.4 L 423.45 -24.4 L 423.45 -29.98 L 438.39 -29.98 L 438.39 -38.99 L 413.93 -38.99 L 413.93 0 L 438.67 0 L 438.67 -8.95 Z M 457.54 -12.54 L 464.55 0 L 475.38 0 L 467.23 -14.71 C 470.99 -17.16 473.16 -21.32 473.16 -25.76 C 473.16 -33.12 467.29 -38.99 459.99 -38.99 L 443.46 -38.99 L 443.46 0 L 452.98 0 L 452.98 -12.54 Z M 452.98 -21.55 L 452.98 -29.98 L 459.99 -29.98 C 462.38 -29.98 464.21 -28.16 464.21 -25.76 C 464.21 -23.48 462.27 -21.55 459.99 -21.55 Z M 504.96 0 L 515.11 0 L 500.8 -38.99 L 490.66 -38.99 L 476.41 0 L 486.55 0 L 489.06 -6.78 L 502.46 -6.78 Z M 492.31 -15.79 L 495.79 -25.19 L 499.15 -15.79 Z M 538.54 -29.98 L 538.54 -38.99 L 509.41 -38.99 L 509.41 -29.98 L 519.27 -29.98 L 519.27 0 L 528.73 0 L 528.73 -29.98 Z M 558.71 0.8 C 569.89 0.8 578.78 -8.27 578.78 -19.32 C 578.78 -30.55 569.83 -39.39 558.71 -39.39 C 547.54 -39.39 538.59 -30.38 538.59 -19.32 C 538.59 -8.32 547.6 0.8 558.71 0.8 Z M 548.05 -19.32 C 548.05 -25.14 552.96 -29.93 558.71 -29.93 C 564.58 -29.93 569.26 -25.14 569.26 -19.32 C 569.26 -13.51 564.58 -8.72 558.71 -8.72 C 552.9 -8.72 548.05 -13.57 548.05 -19.32 Z M 597.02 -12.54 L 604.03 0 L 614.86 0 L 606.71 -14.71 C 610.47 -17.16 612.64 -21.32 612.64 -25.76 C 612.64 -33.12 606.76 -38.99 599.47 -38.99 L 582.94 -38.99 L 582.94 0 L 592.46 0 L 592.46 -12.54 Z M 592.46 -21.55 L 592.46 -29.98 L 599.47 -29.98 C 601.86 -29.98 603.69 -28.16 603.69 -25.76 C 603.69 -23.48 601.75 -21.55 599.47 -21.55 Z" stroke-linecap="round" />
</g>
</g>
</g>
<g transform="matrix(2.0028560673173454 0 0 2.0028560673173454 640 384.69058629206927)" id="logo-logo"  >
<g style=""  paint-order="stroke"   >
		<g transform="matrix(0.4602561135194528 0 0 -0.4602561135194528 117.56805176546578 67.61990768605096)"  >
<linearGradient id="SVGID_1_255693" gradientUnits="userSpaceOnUse" gradientTransform="matrix(0 -204.72865 -204.72865 0 755.44025 452.16089)"  x1="0" y1="0" x2="1" y2="0">
<stop offset="0%" style="stop-color:rgb(252,189,36);stop-opacity: 1"/>
<stop offset="89.253041%" style="stop-color:rgb(237,82,18);stop-opacity: 1"/>
<stop offset="100%" style="stop-color:rgb(237,82,18);stop-opacity: 1"/>
</linearGradient>
<path style="stroke: none; stroke-width: 1; stroke-dasharray: none; stroke-linecap: butt; stroke-dashoffset: 0; stroke-linejoin: miter; stroke-miterlimit: 4; fill: url(#SVGID_1_255693); fill-rule: nonzero; opacity: 1;"  paint-order="stroke"  transform=" translate(-755.4404999999999, -353.082)" d="M 660.881 359.422 C 665.146 322.79600000000005 674.7959999999999 281.699 696.262 260.23300000000006 L 696.262 260.23300000000006 C 713.179 243.31700000000006 735.6719999999999 231.56500000000005 761.481 231.56500000000005 L 761.481 231.56500000000005 C 810.3679999999999 231.56500000000005 850 271.19500000000005 850 320.0830000000001 L 850 320.0830000000001 C 850 350.3830000000001 831.388 384.20400000000006 824.54 382.16300000000007 L 824.54 382.16300000000007 C 822.539 381.56700000000006 846.9689999999999 321.4050000000001 812.6659999999999 293.28200000000004 L 812.6659999999999 293.28200000000004 C 781.429 267.67300000000006 757.698 298.67800000000005 757.698 298.67800000000005 L 757.698 298.67800000000005 C 779.577 307.38200000000006 783.771 316.67400000000004 783.771 316.67400000000004 L 783.771 316.67400000000004 C 742.519 300.10600000000005 725.8349999999999 336.47900000000004 725.8349999999999 336.47900000000004 L 725.8349999999999 336.47900000000004 C 744.03 334.165 767.3459999999999 336.64000000000004 787.271 344.62100000000004 L 787.271 344.62100000000004 C 799.699 349.6 819.367 363.367 818.529 366.16 L 818.529 366.16 C 818.141 367.45300000000003 810.06 362.43800000000005 798.961 357.423 L 798.961 357.423 C 786.0840000000001 351.606 769.146 345.789 755.44 349.816 L 755.44 349.816 C 709.581 363.28999999999996 704.839 436.349 692.301 474.599 L 692.301 474.599 C 695.308 439.255 682.4390000000001 397.65999999999997 660.8810000000001 359.42199999999997" stroke-linecap="round" />
</g>
		<g transform="matrix(0.4602561135194528 0 0 -0.4602561135194528 -32.929621974696715 79.85871607748078)"  >
<path style="stroke: none; stroke-width: 1; stroke-dasharray: none; stroke-linecap: butt; stroke-dashoffset: 0; stroke-linejoin: miter; stroke-miterlimit: 4; fill: rgb(143,144,153); fill-rule: nonzero; opacity: 1;"  paint-order="stroke"  transform=" translate(10.914, 0.0005000000000006111)" d="M 0 0 C 0 6.027 -4.886 10.913 -10.914 10.913 C -16.941 10.913 -21.828 6.027 -21.828 0 C -21.828 -6.028 -16.941 -10.914 -10.914 -10.914 C -4.886 -10.914 0 -6.028 0 0" stroke-linecap="round" />
</g>
		<g transform="matrix(0.4602561135194528 0 0 -0.4602561135194528 -58.99387965769199 79.85871607748078)"  >
<path style="stroke: none; stroke-width: 1; stroke-dasharray: none; stroke-linecap: butt; stroke-dashoffset: 0; stroke-linejoin: miter; stroke-miterlimit: 4; fill: rgb(143,144,153); fill-rule: nonzero; opacity: 1;"  paint-order="stroke"  transform=" translate(10.914, 0.0005000000000006111)" d="M 0 0 C 0 6.027 -4.886 10.913 -10.914 10.913 C -16.941 10.913 -21.828 6.027 -21.828 0 C -21.828 -6.028 -16.941 -10.914 -10.914 -10.914 C -4.886 -10.914 0 -6.028 0 0" stroke-linecap="round" />
</g>
		<g transform="matrix(0.4602561135194528 0 0 -0.4602561135194528 -6.865226214867448 79.85871607748078)"  >
<path style="stroke: none; stroke-width: 1; stroke-dasharray: none; stroke-linecap: butt; stroke-dashoffset: 0; stroke-linejoin: miter; stroke-miterlimit: 4; fill: rgb(143,144,153); fill-rule: nonzero; opacity: 1;"  paint-order="stroke"  transform=" translate(-10.914, 0.0005000000000006111)" d="M 0 0 C 0 6.027 4.887 10.913 10.914 10.913 C 16.942 10.913 21.828 6.027 21.828 0 C 21.828 -6.028 16.942 -10.914 10.914 -10.914 C 4.887 -10.914 0 -6.028 0 0" stroke-linecap="round" />
</g>
		<g transform="matrix(0.4602561135194528 0 0 -0.4602561135194528 -96.40068900226066 10.069897482080705)"  >
<path style="stroke: none; stroke-width: 1; stroke-dasharray: none; stroke-linecap: butt; stroke-dashoffset: 0; stroke-linejoin: miter; stroke-miterlimit: 4; fill: rgb(245,245,247); fill-rule: nonzero; opacity: 1;"  paint-order="stroke"  transform=" translate(0.2445, -1.04)" d="M 0 0 L -0.489 2.08 C -0.195 0.736 0 0 0 0" stroke-linecap="round" />
</g>
		<g transform="matrix(0.4602561135194528 0 0 -0.4602561135194528 -39.41764825522455 0)"  >
<linearGradient id="SVGID_2_255694" gradientUnits="userSpaceOnUse" gradientTransform="matrix(0 -365.32196 -365.32196 0 414.35724 736.97009)"  x1="0" y1="0" x2="1" y2="0">
<stop offset="0%" style="stop-color:rgb(252,189,36);stop-opacity: 1"/>
<stop offset="89.253041%" style="stop-color:rgb(237,82,18);stop-opacity: 1"/>
<stop offset="100%" style="stop-color:rgb(237,82,18);stop-opacity: 1"/>
</linearGradient>
<path style="stroke: none; stroke-width: 1; stroke-dasharray: none; stroke-linecap: butt; stroke-dashoffset: 0; stroke-linejoin: miter; stroke-miterlimit: 4; fill: url(#SVGID_2_255694); fill-rule: nonzero; opacity: 1;"  paint-order="stroke"  transform=" translate(-414.3571435612041, -500)" d="M 150 543.794 C 150 416.832 218.269 305.828 320.07 245.54899999999998 L 320.07 245.54899999999998 L 320.062 245.55599999999998 C 320.065 245.553 320.068 245.551 320.071 245.54999999999998 L 320.071 245.54999999999998 C 322.01700000000005 228.67499999999998 320.26700000000005 204.718 320.26700000000005 204.718 L 320.26700000000005 204.718 C 332.90200000000004 222.005 338.5930000000001 240.35299999999998 340.4270000000001 247.297 L 340.4270000000001 247.297 C 303.7680000000001 265.206 279.9750000000001 294.003 279.9750000000001 326.491 L 279.9750000000001 326.491 C 279.9750000000001 380.80899999999997 346.4510000000001 424.841 428.45400000000006 424.841 L 428.45400000000006 424.841 C 510.45700000000005 424.841 576.932 380.809 576.932 326.491 L 576.932 326.491 C 576.932 293.678 552.6510000000001 264.639 515.365 246.772 L 515.365 246.772 C 539.775 249.268 563.409 259.493 595.346 291.327 L 595.346 291.327 C 672.328 368.05899999999997 723.601 510.104 622.152 549.331 L 622.152 549.331 C 566.182 570.9730000000001 506.77900000000005 559.701 450.87500000000006 548.428 L 450.87500000000006 548.428 C 386.01 535.35 325.855 522.271 281.241 560.607 L 281.241 560.607 C 286.41499999999996 582.433 299.008 597.79 314.495 609.5749999999999 L 314.495 609.5749999999999 C 314.494 609.5749999999999 314.493 609.574 314.493 609.574 L 314.493 609.574 C 283.957 591.5469999999999 266.012 565.793 266.012 532.799 L 266.012 532.799 C 266.012 508.22499999999997 277.139 485.436 296.061 466.87 L 296.061 466.87 C 256.551 487.815 231.08499999999998 520.899 231.08499999999998 558.088 L 231.08499999999998 558.088 C 231.08499999999998 621.131 304.139 672.24 394.70899999999995 672.953 L 394.70899999999995 672.953 C 399.29599999999994 672.143 402.66299999999995 667.8589999999999 403.48099999999994 662.262 L 403.48099999999994 662.262 C 413.05299999999994 679.8839999999999 407.61799999999994 701.9359999999999 407.61799999999994 701.9359999999999 L 407.61799999999994 701.9359999999999 C 407.61799999999994 701.9359999999999 337.63899999999995 698.1979999999999 302.91599999999994 718.497 L 302.91599999999994 718.497 C 283.6429999999999 729.7629999999999 277.89899999999994 733.68 263.1019999999999 734.1469999999999 L 263.1019999999999 734.1469999999999 C 267.4699999999999 750.7259999999999 278.81999999999994 783.462 272.2929999999999 795.2819999999999 L 272.2929999999999 795.2819999999999 C 180.221 736.133 150 621.922 150 543.794 M 272.231 694.017 C 272.231 694.017 283.604 699.1350000000001 294.773 700.5310000000001 L 294.773 700.5310000000001 C 305.942 701.9280000000001 304.197 691.8050000000001 304.197 691.8050000000001 L 304.197 691.8050000000001 C 304.197 691.8050000000001 296.169 694.248 289.957 694.11 L 289.957 694.11 C 284.661 693.991 280.64799999999997 693.956 277.792 693.956 L 277.792 693.956 C 273.98299999999995 693.956 272.231 694.017 272.231 694.017" stroke-linecap="round" />
</g>
</g>
</g>
</svg>